<?xml version="1.0" encoding="UTF-8"?>
<svg xmlns="http://www.w3.org/2000/svg" width="878" height="220" role="img" aria-label="Shinsekai yori, Mononoke, DAN DA DAN">
  <style>
    text { font-family: -apple-system, BlinkMacSystemFont, "Segoe UI", sans-serif; }
    a { cursor: pointer; }
    
  </style>
  
  <rect width="878" height="220" rx="18" fill="#0d1117"/>
  
    <a href="https://anilist.co/anime/13125/Shinsekai-yori/">
      <rect x="34" y="32" width="258" height="154" rx="14" fill="#161b22" stroke="#30363d"/>
      <clipPath id="classic-clip-0"><rect x="50" y="50" width="82" height="116" rx="10"/></clipPath>
      
    <rect x="50" y="50" width="82" height="116" rx="10" fill="#1f3a5f"/>
    <text x="91" y="116" text-anchor="middle" font-size="24" font-weight="700" fill="#e6edf3">SY</text>
  
      <text x="146" y="76" font-size="19" font-weight="700" fill="#e6edf3">Shinsekai yori</text>
      <text x="146" y="125" font-size="12" fill="#8b949e">2012 / 25 episodes</text>
    </a>

    <a href="https://anilist.co/anime/2246/Mononoke/">
      <rect x="310" y="32" width="258" height="154" rx="14" fill="#161b22" stroke="#30363d"/>
      <clipPath id="classic-clip-1"><rect x="326" y="50" width="82" height="116" rx="10"/></clipPath>
      
    <rect x="326" y="50" width="82" height="116" rx="10" fill="#7a4a1f"/>
    <text x="367" y="116" text-anchor="middle" font-size="24" font-weight="700" fill="#e6edf3">M</text>
  
      <text x="422" y="76" font-size="19" font-weight="700" fill="#e6edf3">Mononoke</text>
      <text x="422" y="125" font-size="12" fill="#8b949e">2007 / 12 episodes</text>
    </a>

    <a href="https://anilist.co/anime/171018/DAN-DA-DAN/">
      <rect x="586" y="32" width="258" height="154" rx="14" fill="#161b22" stroke="#30363d"/>
      <clipPath id="classic-clip-2"><rect x="602" y="50" width="82" height="116" rx="10"/></clipPath>
      
    <rect x="602" y="50" width="82" height="116" rx="10" fill="#5f1f4a"/>
    <text x="643" y="116" text-anchor="middle" font-size="24" font-weight="700" fill="#e6edf3">DDD</text>
  
      <text x="698" y="76" font-size="19" font-weight="700" fill="#e6edf3">DAN DA DAN</text>
      <text x="698" y="125" font-size="12" fill="#8b949e">2024 / 12 episodes</text>
    </a>
</svg>
