<?xml version="1.0" encoding="UTF-8"?>
<svg xmlns="http://www.w3.org/2000/svg" width="896" height="340" role="img" aria-label="Shinsekai yori, Mononoke, DAN DA DAN">
  <style>
    text { font-family: -apple-system, BlinkMacSystemFont, "Segoe UI", sans-serif; }
    a { cursor: pointer; }
    
  </style>
  
  <rect x="0.5" y="0.5" width="895" height="339" rx="16" fill="#0d1117" stroke="#30363d"/>
  
    
    <a href="https://anilist.co/anime/13125/Shinsekai-yori/">
      <text x="30" y="75" font-size="13" font-weight="600" fill="#444c56">01</text>
      <clipPath id="list-clip-0"><rect x="68" y="29" width="59" height="82" rx="8"/></clipPath>
      
    <rect x="68" y="29" width="59" height="82" rx="10" fill="#1f3a5f"/>
    <text x="97.5" y="76" text-anchor="middle" font-size="18" font-weight="700" fill="#e6edf3">SY</text>
  
      <text x="148" y="64" font-size="17.5" font-weight="700" fill="#e6edf3">Shinsekai yori</text>
      <text x="148" y="88" font-size="12.5" fill="#8b949e">Drama · Mystery · Psychological</text>
      <text x="860" y="64" text-anchor="end" font-size="13" fill="#8b949e">2012 · 25 episodes</text>
      <text x="860" y="88" text-anchor="end" font-size="13.5" font-weight="700" fill="#58a6ff">★ 8.4</text>
    </a>

    <path d="M20 120H876" stroke="#21262d"/>
    <a href="https://anilist.co/anime/2246/Mononoke/">
      <text x="30" y="175" font-size="13" font-weight="600" fill="#444c56">02</text>
      <clipPath id="list-clip-1"><rect x="68" y="129" width="59" height="82" rx="8"/></clipPath>
      
    <rect x="68" y="129" width="59" height="82" rx="10" fill="#7a4a1f"/>
    <text x="97.5" y="176" text-anchor="middle" font-size="18" font-weight="700" fill="#e6edf3">M</text>
  
      <text x="148" y="164" font-size="17.5" font-weight="700" fill="#e6edf3">Mononoke</text>
      <text x="148" y="188" font-size="12.5" fill="#8b949e">Horror · Mystery · Supernatural</text>
      <text x="860" y="164" text-anchor="end" font-size="13" fill="#8b949e">2007 · 12 episodes</text>
      <text x="860" y="188" text-anchor="end" font-size="13.5" font-weight="700" fill="#58a6ff">★ 8.2</text>
    </a>

    <path d="M20 220H876" stroke="#21262d"/>
    <a href="https://anilist.co/anime/171018/DAN-DA-DAN/">
      <text x="30" y="275" font-size="13" font-weight="600" fill="#444c56">03</text>
      <clipPath id="list-clip-2"><rect x="68" y="229" width="59" height="82" rx="8"/></clipPath>
      
    <rect x="68" y="229" width="59" height="82" rx="10" fill="#5f1f4a"/>
    <text x="97.5" y="276" text-anchor="middle" font-size="18" font-weight="700" fill="#e6edf3">DDD</text>
  
      <text x="148" y="264" font-size="17.5" font-weight="700" fill="#e6edf3">DAN DA DAN</text>
      <text x="148" y="288" font-size="12.5" fill="#8b949e">Action · Comedy · Supernatural</text>
      <text x="860" y="264" text-anchor="end" font-size="13" fill="#8b949e">2024 · 12 episodes</text>
      <text x="860" y="288" text-anchor="end" font-size="13.5" font-weight="700" fill="#58a6ff">★ 8.4</text>
    </a>
</svg>
