<?xml version="1.0" encoding="UTF-8"?>
<svg xmlns="http://www.w3.org/2000/svg" width="896" height="446" role="img" aria-label="Shinsekai yori, Mononoke, DAN DA DAN">
  <style>
    text { font-family: -apple-system, BlinkMacSystemFont, "Segoe UI", sans-serif; }
    a { cursor: pointer; }
    
  </style>
  
  
    <a href="https://anilist.co/anime/13125/Shinsekai-yori/">
      <clipPath id="poster-clip-0"><rect x="0" y="0" width="286" height="446" rx="14"/></clipPath>
      <rect x="0" y="0" width="286" height="446" rx="14" fill="#161b22"/>
      
    <rect x="0" y="0" width="286" height="336" rx="10" fill="#1f3a5f"/>
    <text x="143" y="179.33333333333334" text-anchor="middle" font-size="34" font-weight="700" fill="#e6edf3">SY</text>
  
      <path d="M0 336H286" stroke="#30363d" opacity="0.7"/>
      <text x="18" y="368" font-size="17" font-weight="700" fill="#e6edf3">Shinsekai yori</text>
      <text x="18" y="391" font-size="12.5" fill="#8b949e">2012 · 25 episodes · ★ 8.4</text>
      
      <rect x="18" y="406" width="47" height="22" rx="11" fill="#111827" stroke="#30363d"/>
      <text x="41.5" y="421" text-anchor="middle" font-size="11" fill="#8b949e">Drama</text>
      <rect x="73" y="406" width="59" height="22" rx="11" fill="#111827" stroke="#30363d"/>
      <text x="102.5" y="421" text-anchor="middle" font-size="11" fill="#8b949e">Mystery</text>
      <rect x="140" y="406" width="93" height="22" rx="11" fill="#111827" stroke="#30363d"/>
      <text x="186.5" y="421" text-anchor="middle" font-size="11" fill="#8b949e">Psychological</text>
      <rect x="0.5" y="0.5" width="285" height="445" rx="13.5" fill="none" stroke="#30363d"/>
    </a>

    <a href="https://anilist.co/anime/2246/Mononoke/">
      <clipPath id="poster-clip-1"><rect x="305" y="0" width="286" height="446" rx="14"/></clipPath>
      <rect x="305" y="0" width="286" height="446" rx="14" fill="#161b22"/>
      
    <rect x="305" y="0" width="286" height="336" rx="10" fill="#7a4a1f"/>
    <text x="448" y="179.33333333333334" text-anchor="middle" font-size="34" font-weight="700" fill="#e6edf3">M</text>
  
      <path d="M305 336H591" stroke="#30363d" opacity="0.7"/>
      <text x="323" y="368" font-size="17" font-weight="700" fill="#e6edf3">Mononoke</text>
      <text x="323" y="391" font-size="12.5" fill="#8b949e">2007 · 12 episodes · ★ 8.2</text>
      
      <rect x="323" y="406" width="53" height="22" rx="11" fill="#111827" stroke="#30363d"/>
      <text x="349.5" y="421" text-anchor="middle" font-size="11" fill="#8b949e">Horror</text>
      <rect x="384" y="406" width="59" height="22" rx="11" fill="#111827" stroke="#30363d"/>
      <text x="413.5" y="421" text-anchor="middle" font-size="11" fill="#8b949e">Mystery</text>
      <rect x="451" y="406" width="88" height="22" rx="11" fill="#111827" stroke="#30363d"/>
      <text x="495" y="421" text-anchor="middle" font-size="11" fill="#8b949e">Supernatural</text>
      <rect x="305.5" y="0.5" width="285" height="445" rx="13.5" fill="none" stroke="#30363d"/>
    </a>

    <a href="https://anilist.co/anime/171018/DAN-DA-DAN/">
      <clipPath id="poster-clip-2"><rect x="610" y="0" width="286" height="446" rx="14"/></clipPath>
      <rect x="610" y="0" width="286" height="446" rx="14" fill="#161b22"/>
      
    <rect x="610" y="0" width="286" height="336" rx="10" fill="#5f1f4a"/>
    <text x="753" y="179.33333333333334" text-anchor="middle" font-size="34" font-weight="700" fill="#e6edf3">DDD</text>
  
      <path d="M610 336H896" stroke="#30363d" opacity="0.7"/>
      <text x="628" y="368" font-size="17" font-weight="700" fill="#e6edf3">DAN DA DAN</text>
      <text x="628" y="391" font-size="12.5" fill="#8b949e">2024 · 12 episodes · ★ 8.4</text>
      
      <rect x="628" y="406" width="53" height="22" rx="11" fill="#111827" stroke="#30363d"/>
      <text x="654.5" y="421" text-anchor="middle" font-size="11" fill="#8b949e">Action</text>
      <rect x="689" y="406" width="53" height="22" rx="11" fill="#111827" stroke="#30363d"/>
      <text x="715.5" y="421" text-anchor="middle" font-size="11" fill="#8b949e">Comedy</text>
      <rect x="750" y="406" width="88" height="22" rx="11" fill="#111827" stroke="#30363d"/>
      <text x="794" y="421" text-anchor="middle" font-size="11" fill="#8b949e">Supernatural</text>
      <rect x="610.5" y="0.5" width="285" height="445" rx="13.5" fill="none" stroke="#30363d"/>
    </a>
</svg>
